# Blender 4.4.3
# www.blender.org
o bunny_100
v -0.031332 0.156503 -0.003836
v -0.048248 0.136772 0.014896
v -0.051376 0.134933 -0.001553
v -0.041529 0.172773 -0.001792
v -0.059948 0.145685 0.035268
v -0.025403 0.123613 -0.003379
v -0.023999 0.125080 0.019287
v -0.058775 0.156633 0.010871
v -0.059078 0.119340 0.040473
v -0.041913 0.110909 0.037020
v -0.024365 0.106523 -0.021603
v -0.053321 0.113609 -0.016861
v -0.021622 0.112690 0.038842
v -0.001669 0.131183 0.021500
v -0.001092 0.128506 -0.004351
v -0.077366 0.170132 -0.034634
v -0.074838 0.162143 -0.011551
v -0.086342 0.147743 0.034483
v -0.090801 0.125854 0.039804
v -0.071737 0.098160 0.043827
v -0.039090 0.086592 0.042905
v -0.086677 0.150379 0.008810
v 0.002288 0.108274 -0.020939
v -0.032929 0.087346 -0.024931
v -0.055952 0.090559 -0.021901
v -0.069289 0.145544 -0.015062
v -0.073215 0.118822 -0.008006
v 0.005116 0.115907 0.039935
v -0.018408 0.095590 0.050803
v 0.014795 0.129897 0.017102
v 0.021828 0.124755 -0.000104
v -0.067016 0.152306 -0.041186
v -0.062374 0.165167 -0.061056
v -0.071662 0.182207 -0.055555
v -0.091986 0.122258 0.006195
v -0.081879 0.104492 0.029654
v -0.037127 0.060348 0.038686
v -0.070051 0.069198 0.032848
v 0.006243 0.089590 -0.033412
v -0.019371 0.087977 -0.038965
v 0.025224 0.108733 -0.014569
v -0.033143 0.068680 -0.018181
v -0.053756 0.069360 -0.014518
v -0.078718 0.093946 -0.011824
v 0.016329 0.094393 0.048984
v 0.030699 0.116980 0.027917
v 0.037371 0.111331 0.004525
v -0.088761 0.100571 0.009618
v -0.085253 0.079400 0.019268
v -0.014370 0.057332 0.052446
v -0.016742 0.078562 0.057385
v -0.062530 0.058483 0.009736
v -0.049027 0.051103 0.017517
v 0.030482 0.087626 -0.020859
v 0.006131 0.063722 -0.032293
v -0.018281 0.064321 -0.037477
v -0.054347 0.051890 -0.004225
v -0.032125 0.049628 -0.015293
v -0.075867 0.070702 -0.003403
v 0.010264 0.078466 0.055401
v 0.040998 0.093259 0.030578
v 0.045603 0.089833 0.001937
v 0.010089 0.057935 0.053034
v -0.040808 0.037080 0.043157
v -0.020499 0.038414 0.053723
v 0.028883 0.063411 -0.021013
v -0.018008 0.043957 -0.027360
v -0.043023 0.033276 -0.027750
v -0.042891 0.033276 -0.000494
v 0.029545 0.063774 0.042230
v 0.044474 0.069276 0.025477
v 0.043616 0.062932 -0.003284
v 0.011234 0.037822 0.044971
v -0.037225 0.034175 0.021775
v -0.021240 0.038412 0.023617
v 0.022855 0.042707 -0.013345
v 0.003148 0.037805 -0.023449
v -0.020668 0.034967 -0.024143
v -0.023165 0.038295 0.001121
v 0.032698 0.043908 0.030599
v 0.055581 0.050327 0.023191
v 0.061673 0.066441 0.008965
v -0.063519 0.037495 0.044251
v -0.062429 0.034779 0.020234
v -0.068971 0.034728 -0.004885
v 0.040989 0.040968 -0.000498
v 0.011242 0.033326 -0.000495
v -0.007430 0.040881 -0.025404
v -0.005537 0.038899 -0.003155
v 0.008671 0.037869 0.030390
v 0.024485 0.034292 0.015557
v -0.002822 0.037283 0.014532
v -0.014929 0.040132 0.046260
v -0.011904 0.165340 -0.017973
v -0.023556 0.184941 -0.012935
vn 0.4226 0.8996 -0.1103
vn 0.4087 0.9033 -0.1304
vn 0.4442 0.8925 -0.0780
vn -0.4893 0.0837 -0.8681
vn -0.4843 0.1637 -0.8594
vn -0.4830 -0.1592 -0.8610
vn 0.7029 0.4843 0.5210
vn 0.8056 0.3518 0.4767
vn 0.9128 0.1252 0.3887
vn 0.1171 0.6559 -0.7457
vn 0.1288 0.6396 -0.7578
vn 0.1830 0.5588 -0.8089
vn 0.0817 0.7228 0.6863
vn 0.0355 0.7494 0.6611
vn -0.1169 0.8202 0.5600
vn -0.2250 0.9710 -0.0805
vn -0.2255 0.9709 -0.0810
vn -0.2513 0.9619 -0.1072
vn 0.8345 0.5475 -0.0617
vn 0.8329 0.4568 -0.3124
vn 0.7965 0.5958 0.1026
vn 0.0058 0.2150 0.9766
vn 0.0090 0.2103 0.9776
vn -0.0089 0.2367 0.9715
vn 0.1364 0.1510 0.9791
vn 0.1317 0.1612 0.9781
vn 0.1901 0.0304 0.9813
vn -0.0975 0.9611 0.2584
vn -0.0886 0.9593 0.2681
vn -0.2316 0.9671 0.1054
vn -0.0898 0.6719 -0.7351
vn -0.0895 0.6722 -0.7350
vn -0.1514 0.6100 -0.7778
vn -0.1025 0.2192 -0.9703
vn -0.1014 0.2200 -0.9702
vn -0.1065 0.2162 -0.9705
vn 0.2592 0.0851 -0.9621
vn 0.1772 0.1966 -0.9643
vn 0.4891 -0.3032 -0.8178
vn -0.1876 0.7741 0.6047
vn -0.1833 0.7725 0.6079
vn -0.2660 0.7985 0.5401
vn -0.3077 0.3188 0.8965
vn -0.3183 0.3251 0.8905
vn -0.4914 0.4242 0.7607
vn 0.1324 0.9818 -0.1364
vn 0.1438 0.9790 -0.1447
vn 0.0660 0.9941 -0.0864
vn -0.9049 -0.4107 -0.1115
vn -0.9177 -0.3766 -0.1262
vn -0.8698 -0.4875 -0.0762
vn -0.4788 0.8588 -0.1824
vn -0.1476 0.9890 0.0035
vn 0.6567 0.7539 0.0197
vn 0.6389 0.7405 0.2082
vn 0.6805 0.7050 0.1995
vn 0.6588 0.7244 0.2029
vn -0.9811 0.1925 0.0200
vn -0.9814 0.1907 0.0217
vn -0.9794 0.2014 0.0117
vn -0.2273 -0.0483 0.9726
vn -0.2157 -0.0608 0.9746
vn -0.5082 0.4802 0.7149
vn -0.1700 -0.2642 0.9494
vn -0.1542 -0.2895 0.9447
vn -0.2205 -0.1785 0.9589
vn 0.0572 0.6314 -0.7734
vn 0.0480 0.6374 -0.7691
vn -0.0274 0.6832 -0.7297
vn 0.2132 0.6572 -0.7229
vn 0.2137 0.6568 -0.7231
vn 0.1836 0.6781 -0.7116
vn -0.1723 -0.3365 -0.9258
vn -0.1721 -0.3367 -0.9258
vn -0.1692 -0.3397 -0.9252
vn -0.3571 0.2278 -0.9059
vn -0.3567 0.2272 -0.9062
vn -0.3639 0.2380 -0.9005
vn -0.2909 -0.8944 -0.3397
vn 0.0728 -0.8764 -0.4761
vn 0.1487 -0.8497 -0.5059
vn -0.7192 0.0779 -0.6905
vn -0.7276 0.0700 -0.6825
vn -0.8200 -0.0303 -0.5716
vn -0.0190 0.4932 0.8697
vn 0.0124 0.4651 0.8852
vn -0.0914 0.5546 0.8271
vn 0.2298 0.7852 0.5750
vn 0.2309 0.7847 0.5752
vn 0.2413 0.7803 0.5769
vn 0.6384 0.7697 0.0093
vn 0.6383 0.7697 0.0093
vn 0.6219 0.7829 0.0181
vn -0.8445 -0.3375 -0.4158
vn -0.9499 -0.2574 0.1771
vn -0.9447 -0.2925 0.1481
vn -0.9099 -0.4122 0.0470
vn -0.7901 -0.1901 0.5828
vn -0.7682 -0.2267 0.5987
vn -0.7312 -0.2823 0.6210
vn -0.5516 -0.2074 0.8079
vn -0.5559 -0.2013 0.8065
vn -0.5251 -0.2445 0.8152
vn -0.3746 -0.8431 0.3859
vn -0.3804 -0.8434 0.3795
vn -0.2560 -0.8205 0.5112
vn 0.3562 0.4594 -0.8136
vn 0.3373 0.4765 -0.8119
vn 0.2167 0.5748 -0.7891
vn 0.2105 -0.0472 -0.9765
vn 0.2106 -0.0474 -0.9764
vn 0.2147 -0.0515 -0.9753
vn -0.7668 -0.1315 -0.6282
vn -0.7660 -0.1302 -0.6295
vn -0.8037 -0.1888 -0.5643
vn -0.3463 -0.3345 -0.8764
vn -0.3217 -0.3067 -0.8958
vn -0.4472 -0.4477 -0.7743
vn -0.4307 -0.3449 -0.8340
vn -0.4301 -0.3455 -0.8340
vn -0.4220 -0.3542 -0.8345
vn -0.7630 0.0540 -0.6442
vn -0.7644 0.0571 -0.6422
vn -0.8362 0.2757 -0.4741
vn 0.0660 0.3612 0.9302
vn 0.0631 0.3569 0.9320
vn 0.0606 0.3531 0.9336
vn 0.4817 0.4191 0.7696
vn 0.4609 0.4357 0.7732
vn 0.5774 0.3354 0.7444
vn 0.9151 0.3812 0.1311
vn 0.9175 0.3768 0.1277
vn 0.8985 0.4111 0.1540
vn -0.6562 -0.7501 0.0818
vn -0.6603 -0.7480 0.0673
vn -0.6367 -0.7575 0.1445
vn 0.0350 -0.1770 0.9836
vn 0.0237 -0.1642 0.9861
vn 0.0729 -0.2198 0.9728
vn -0.4722 0.2282 0.8514
vn -0.4742 0.2263 0.8508
vn -0.4851 0.2157 0.8474
vn 0.7647 0.3546 -0.5381
vn 0.7646 0.3542 -0.5385
vn 0.7652 0.3575 -0.5355
vn 0.4505 -0.0321 -0.8922
vn 0.4509 -0.0327 -0.8920
vn 0.4569 -0.0404 -0.8886
vn -0.7578 -0.2319 -0.6099
vn -0.7542 -0.2382 -0.6119
vn -0.6933 -0.3360 -0.6375
vn -0.5532 -0.6425 -0.5303
vn -0.5480 -0.6463 -0.5310
vn -0.8569 -0.2456 -0.4533
vn -0.8578 0.0180 -0.5137
vn -0.9070 0.1650 -0.3875
vn -0.8340 0.5498 0.0466
vn -0.9146 -0.2569 -0.3124
vn -0.9137 -0.2590 -0.3132
vn -0.8970 -0.2970 -0.3274
vn 0.5428 0.0263 0.8394
vn 0.5198 -0.0167 0.8541
vn 0.5745 0.0972 0.8127
vn 0.6570 0.0444 0.7526
vn 0.6666 0.0374 0.7444
vn 0.7441 -0.0229 0.6677
vn 0.9971 0.0201 0.0738
vn 0.9982 0.0039 0.0597
vn 0.9835 0.1043 0.1475
vn 0.1289 -0.2454 0.9608
vn 0.1898 -0.1684 0.9673
vn 0.2842 -0.0348 0.9581
vn 0.1153 -0.9923 0.0457
vn 0.1477 -0.9859 0.0786
vn 0.0582 -0.9982 -0.0118
vn 0.8052 0.0046 -0.5930
vn 0.8062 0.0062 -0.5916
vn 0.8326 0.0486 -0.5517
vn 0.4475 -0.3690 -0.8146
vn 0.4445 -0.3717 -0.8150
vn 0.3964 -0.4142 -0.8193
vn -0.1334 0.5873 -0.7983
vn -0.3014 0.4738 -0.8274
vn 0.1160 0.6872 -0.7172
vn 0.1366 -0.9888 0.0594
vn 0.1576 -0.9843 0.0795
vn 0.0710 -0.9975 -0.0027
vn 0.5612 -0.3138 0.7659
vn 0.5649 -0.3169 0.7619
vn 0.5317 -0.2898 0.7958
vn 0.5584 -0.1168 0.8213
vn 0.5380 -0.1044 0.8364
vn 0.7557 -0.2472 0.6064
vn 0.5528 0.8326 0.0349
vn 0.6772 0.7122 0.1846
vn 0.9533 0.1906 0.2344
vn -0.0131 -0.9937 0.1110
vn -0.0136 -0.9937 0.1115
vn -0.0134 -0.9937 0.1112
vn 0.2516 -0.9676 -0.0211
vn 0.2531 -0.9672 -0.0200
vn 0.2477 -0.9685 -0.0239
vn -0.7457 0.6360 0.1986
vn -0.7450 0.6366 0.1992
vn -0.7397 0.6412 0.2042
vn 0.6388 -0.3034 -0.7070
vn 0.6385 -0.3028 -0.7076
vn 0.5602 -0.1713 -0.8104
vn 0.3159 -0.8655 -0.3887
vn -0.0018 -0.9562 -0.2927
vn 0.4510 -0.7755 -0.4417
vn 0.2498 -0.9683 -0.0049
vn 0.1625 -0.9848 0.0609
vn 0.0469 -0.9885 0.1440
vn 0.2933 -0.9397 0.1758
vn 0.2841 -0.9103 0.3010
vn 0.2901 -0.9568 -0.0193
vn 0.4137 -0.8924 0.1801
vn 0.4134 -0.8925 0.1801
vn 0.3105 -0.9374 0.1579
vn 0.7394 -0.4423 -0.5076
vn 0.7738 -0.3908 -0.4984
vn 0.5218 -0.6721 -0.5254
vn -0.0424 -0.9986 0.0314
vn -0.0437 -0.9986 0.0301
vn -0.0584 -0.9982 0.0162
vn -0.0262 -0.9992 -0.0310
vn -0.0240 -0.9991 -0.0342
vn 0.0115 -0.9961 -0.0877
vn 0.2351 -0.9311 -0.2790
vn 0.2373 -0.9305 -0.2790
vn 0.3914 -0.8788 -0.2730
vn -0.3145 -0.9481 -0.0472
vn -0.3141 -0.9481 -0.0502
vn -0.3128 -0.9480 -0.0580
vn -0.1124 -0.9843 0.1361
vn -0.1124 -0.9845 0.1347
vn -0.1128 -0.9818 0.1526
vn -0.0356 -0.9966 0.0749
vn -0.0361 -0.9964 0.0771
vn -0.0325 -0.9976 0.0610
vn 0.5249 0.7174 -0.4581
vn -0.4696 -0.8027 0.3677
vn 0.7567 -0.5980 -0.2642
vn 0.7279 -0.6829 -0.0621
vn 0.6170 0.3245 0.7169
vn 0.7443 0.3237 0.5842
vn 0.8783 0.0064 0.4780
vn -0.6663 0.4061 -0.6254
vn -0.4474 0.2840 0.8480
vn 0.6484 0.5813 -0.4916
vn -0.9453 -0.0079 0.3262
vn -0.5195 -0.8490 0.0964
vn -0.8883 0.2182 0.4041
vn 0.1248 -0.3826 -0.9154
vn 0.0418 -0.4399 -0.8971
vn 0.1302 -0.3787 -0.9163
vn 0.1599 -0.0985 -0.9822
vn 0.0689 -0.9954 -0.0667
vn 0.0473 -0.9978 -0.0472
vn -0.1174 -0.9912 0.0604
vn 0.0694 -0.3542 -0.9326
vn 0.3823 0.9088 -0.1670
vn -0.4575 0.3488 -0.8179
vn 0.4875 0.6599 0.5717
vn 0.0621 0.7272 -0.6836
vn 0.1944 0.6475 0.7369
vn -0.1979 0.9788 -0.0530
vn 0.7936 0.3923 -0.4651
vn 0.0207 0.1929 0.9810
vn 0.0931 0.2476 0.9644
vn 0.0517 0.9087 0.4142
vn -0.0282 0.7272 -0.6859
vn -0.0969 0.2234 -0.9699
vn -0.1633 0.5782 -0.7994
vn -0.1108 0.7432 0.6598
vn -0.1166 0.2062 0.9715
vn 0.2106 0.9587 -0.1912
vn -0.9434 -0.2900 -0.1611
vn -0.2067 0.8863 -0.4145
vn 0.8641 0.3344 0.3762
vn 0.8552 0.3428 0.3889
vn 0.8562 0.3497 0.3802
vn -0.9829 0.1814 0.0304
vn 0.0175 -0.4542 0.8907
vn -0.1045 -0.3654 0.9250
vn 0.1386 0.5745 -0.8067
vn 0.2400 0.6374 -0.7322
vn -0.1756 -0.3330 -0.9264
vn -0.3496 0.2167 -0.9115
vn -0.4618 -0.8468 -0.2639
vn -0.5831 0.1874 -0.7905
vn 0.0711 0.4104 0.9092
vn 0.2172 0.7903 0.5728
vn 0.6530 0.7574 0.0012
vn -0.9465 -0.0847 0.3113
vn -0.8271 -0.1193 0.5493
vn -0.5782 -0.1678 0.7984
vn -0.5058 -0.8415 0.1900
vn 0.4598 0.3573 -0.8130
vn 0.2065 -0.0432 -0.9775
vn -0.7215 -0.0686 -0.6890
vn -0.1919 -0.1601 -0.9683
vn -0.4393 -0.3357 -0.8333
vn -0.6137 -0.1946 -0.7652
vn 0.0691 0.3658 0.9281
vn 0.3517 0.5143 0.7822
vn 0.9320 0.3470 0.1049
vn -0.6766 -0.7363 0.0028
vn -0.0189 -0.1156 0.9931
vn -0.4613 0.2387 0.8546
vn 0.7641 0.3516 -0.5409
vn 0.4438 -0.0236 -0.8958
vn -0.8061 -0.1366 -0.5758
vn -0.2361 -0.8373 -0.4931
vn -0.4724 -0.4319 -0.7683
vn -0.9284 -0.2212 -0.2986
vn 0.4728 -0.0930 0.8763
vn 0.5892 0.0907 0.8029
vn 0.9969 -0.0783 -0.0114
vn 0.0053 -0.3868 0.9222
vn 0.2267 -0.9608 0.1595
vn 0.7705 -0.0445 -0.6359
vn 0.4920 -0.3270 -0.8069
vn -0.6734 0.0739 -0.7356
vn 0.2280 -0.9625 0.1473
vn 0.5899 -0.3374 0.7336
vn 0.2855 0.0419 0.9575
vn 0.3410 0.8255 -0.4497
vn -0.0324 -0.9911 0.1290
vn -0.0322 -0.9912 0.1287
vn -0.0319 -0.9912 0.1285
vn 0.2574 -0.9662 -0.0169
vn -0.7503 0.6319 0.1941
vn -0.5860 0.5613 0.5844
vn -0.5854 0.5880 0.5582
vn -0.5510 0.6189 0.5598
vn 0.6936 -0.4203 -0.5850
vn -0.1689 -0.9484 -0.2682
vn 0.3776 -0.9198 -0.1071
vn 0.2583 -0.8472 0.4643
vn 0.5374 -0.8175 0.2072
vn 0.8818 -0.1591 -0.4439
vn -0.0267 -0.9986 0.0461
vn -0.0563 -0.9983 0.0151
vn 0.1007 -0.9550 -0.2789
vn -0.3159 -0.9480 -0.0388
vn -0.1120 -0.9867 0.1181
vn -0.0384 -0.9954 0.0873
vn -0.6894 0.6212 0.3725
vn 0.6467 0.1804 0.7411
vn -0.3654 0.8373 0.4068
vn 0.1933 -0.3314 -0.9235
vn 0.0421 -0.4397 -0.8971
vn 0.2592 -0.9626 0.0783
vn -0.1140 -0.9886 0.0981
s 1
f 6//1 2//2 7//3
f 1//4 8//5 4//6
f 9//7 2//8 5//9
f 6//10 12//11 3//12
f 7//13 10//14 13//15
f 15//16 7//17 14//18
f 17//19 3//20 16//21
f 19//22 5//23 18//24
f 20//25 10//26 9//27
f 18//28 8//29 22//30
f 23//31 6//32 15//33
f 24//34 12//35 11//36
f 3//37 27//38 26//39
f 13//40 14//41 7//42
f 13//43 21//44 29//45
f 30//46 15//47 14//48
f 32//49 17//50 16//51
f 17//52 22//53 8//54
f 33//55 16//56 3//57
f 18//58 35//59 19//60
f 9//61 36//62 20//63
f 21//64 38//65 37//66
f 23//67 40//68 11//69
f 23//70 31//71 41//72
f 24//73 43//74 25//75
f 44//76 12//77 25//78
f 3//79 32//80 33//81
f 27//82 22//83 26//84
f 29//85 28//86 13//87
f 30//88 28//89 46//90
f 46//91 31//92 30//93
f 16//94 33//94 32//94
f 35//95 36//96 19//97
f 20//98 49//99 38//100
f 51//101 37//102 50//103
f 38//104 53//105 37//106
f 41//107 39//108 23//109
f 39//110 56//111 40//112
f 24//113 56//114 42//115
f 43//116 58//117 57//118
f 25//119 59//120 44//121
f 48//122 27//123 44//124
f 29//125 60//126 45//127
f 46//128 45//129 61//130
f 61//131 47//132 46//133
f 49//134 52//135 38//136
f 50//137 60//138 51//139
f 37//140 65//141 50//142
f 62//143 41//144 47//145
f 54//146 55//147 39//148
f 58//149 56//150 67//151
f 52//152 43//153 57//154
f 69//155 58//156 68//157
f 44//158 49//159 48//160
f 60//161 70//162 45//163
f 61//164 70//165 71//166
f 71//167 62//168 61//169
f 73//170 50//171 65//172
f 64//173 75//174 65//175
f 72//176 54//177 62//178
f 76//179 55//180 66//181
f 58//182 78//183 68//184
f 78//185 69//186 68//187
f 73//188 70//189 63//190
f 80//191 71//192 70//193
f 82//194 71//195 81//196
f 84//197 64//198 83//199
f 79//200 74//201 69//202
f 57//203 84//204 53//205
f 76//206 72//207 86//208
f 87//209 77//210 76//211
f 78//212 89//213 79//214
f 90//215 80//216 73//217
f 80//218 86//219 81//220
f 81//221 72//222 82//223
f 69//224 84//225 85//226
f 92//227 79//228 89//229
f 76//230 91//231 87//232
f 87//233 89//234 88//235
f 91//236 92//237 87//238
f 90//239 75//240 92//241
f 1//242 95//243 4//244
f 1//245 2//245 3//245
f 4//246 5//247 2//248
f 11//249 40//249 24//249
f 21//250 51//250 29//250
f 31//251 47//251 41//251
f 36//252 48//252 49//252
f 52//253 57//253 53//253
f 37//254 53//254 64//254
f 77//255 88//256 56//257
f 57//258 69//258 85//258
f 65//259 93//260 73//261
f 67//262 88//262 78//262
f 6//1 3//263 2//2
f 1//4 3//264 8//5
f 9//7 10//265 2//8
f 6//10 11//266 12//11
f 7//13 2//267 10//14
f 15//16 6//268 7//17
f 17//19 8//269 3//20
f 19//22 9//270 5//23
f 20//25 21//271 10//26
f 18//28 5//272 8//29
f 23//31 11//273 6//32
f 24//34 25//274 12//35
f 3//37 12//275 27//38
f 13//40 28//276 14//41
f 13//43 10//277 21//44
f 30//46 31//278 15//47
f 32//49 26//279 17//50
f 17//52 26//280 22//53
f 33//281 34//282 16//283
f 18//58 22//284 35//59
f 9//61 19//285 36//62
f 21//64 20//286 38//65
f 23//67 39//287 40//68
f 23//70 15//288 31//71
f 24//73 42//289 43//74
f 44//76 27//290 12//77
f 3//79 26//291 32//80
f 27//82 35//292 22//83
f 29//85 45//293 28//86
f 30//88 14//294 28//89
f 46//91 47//295 31//92
f 35//95 48//296 36//96
f 20//98 36//297 49//99
f 51//101 21//298 37//102
f 38//104 52//299 53//105
f 41//107 54//300 39//108
f 39//110 55//301 56//111
f 24//113 40//302 56//114
f 43//116 42//303 58//117
f 25//119 43//304 59//120
f 48//122 35//305 27//123
f 29//125 51//306 60//126
f 46//128 28//307 45//129
f 61//131 62//308 47//132
f 49//134 59//309 52//135
f 50//137 63//310 60//138
f 37//140 64//311 65//141
f 62//143 54//312 41//144
f 54//146 66//313 55//147
f 58//149 42//314 56//150
f 52//152 59//315 43//153
f 69//155 57//316 58//156
f 44//158 59//317 49//159
f 60//161 63//318 70//162
f 61//164 45//319 70//165
f 71//167 72//320 62//168
f 73//170 63//321 50//171
f 64//173 74//322 75//174
f 72//176 66//323 54//177
f 76//179 77//324 55//180
f 58//182 67//325 78//183
f 78//185 79//326 69//186
f 73//188 80//327 70//189
f 80//191 81//328 71//192
f 82//194 72//329 71//195
f 84//330 74//331 64//332
f 79//200 75//333 74//201
f 57//203 85//334 84//204
f 64//335 53//336 84//337
f 76//206 66//338 72//207
f 87//209 88//339 77//210
f 78//212 88//340 89//213
f 90//215 91//341 80//216
f 80//218 91//342 86//219
f 81//221 86//343 72//222
f 69//224 74//344 84//225
f 92//227 75//345 79//228
f 76//230 86//346 91//231
f 87//233 92//347 89//234
f 91//236 90//348 92//237
f 90//239 93//349 75//240
f 1//242 94//350 95//243
f 2//248 1//351 4//246
f 4//246 8//352 5//247
f 56//257 55//353 77//255
f 88//256 67//354 56//257
f 65//259 75//355 93//260
f 93//260 90//356 73//261
